<svg width="80" height="60" viewBox="0 0 80 60" fill="none" xmlns="http://www.w3.org/2000/svg">
<rect width="80" height="60" fill="white"/>
<path d="M39.37 28.395C39.37 26.205 37.435 24.75 34.48 24.75C31.555 24.75 29.605 26.205 29.605 28.395C29.605 30.435 31.255 31.815 33.805 32.025V34.26H28.57V35.355H40.405V34.26H35.14V32.04C37.705 31.845 39.37 30.435 39.37 28.395ZM38.005 28.395C38.005 29.895 36.595 30.93 34.48 30.93C32.365 30.93 30.97 29.895 30.97 28.395C30.97 26.91 32.365 25.86 34.48 25.86C36.61 25.86 38.005 26.91 38.005 28.395ZM53.3835 30.36V29.28H41.5485V30.36H53.3835ZM52.3035 36.945V35.85H44.3235V34.665H51.8685V31.485H42.9735V32.565H50.5335V33.66H42.9885V36.945H52.3035ZM52.0035 28.23V27.165H44.4285V24.27H43.1085V28.23H52.0035ZM66.737 30.51V29.4H64.652V23.94H63.317V37.05H64.652V30.51H66.737ZM60.317 25.875V24.795H56.402V25.875H60.317ZM62.222 28.125V27.06H54.452V28.125H62.222ZM61.487 31.635C61.487 30.06 60.257 28.86 58.397 28.86C56.537 28.86 55.292 30.09 55.292 31.635C55.292 33.21 56.537 34.38 58.397 34.38C60.257 34.38 61.487 33.18 61.487 31.635ZM60.182 31.635C60.182 32.595 59.477 33.27 58.397 33.27C57.362 33.27 56.627 32.595 56.627 31.635C56.627 30.66 57.377 29.97 58.397 29.97C59.417 29.97 60.182 30.66 60.182 31.635ZM78.2605 30.45V29.385H70.2805V27.885H77.8855V24.48H68.9305V25.515H76.5655V26.865H68.9455V30.45H78.2605ZM74.0605 36.99V32.82H79.3405V31.755H67.5055V32.82H72.7255V36.99H74.0605Z" fill="#33CC99"/>
<path fill-rule="evenodd" clip-rule="evenodd" d="M20 30C20 24.4772 15.5228 20 10 20C4.47716 20 0 24.4772 0 30V38C0 39.1046 0.895432 40 2 40H10H18C19.1046 40 20 39.1046 20 38V30Z" fill="#33CC99"/>
<path fill-rule="evenodd" clip-rule="evenodd" d="M16.002 30C16.002 26.6863 13.3157 24 10.002 24C6.68823 24 4.00195 26.6863 4.00195 30V40H16.002V30Z" fill="#5CD6AD"/>
<path fill-rule="evenodd" clip-rule="evenodd" d="M11.998 30.0002C11.998 28.8957 11.1026 28.0002 9.99805 28.0002C8.89349 28.0002 7.99805 28.8957 7.99805 30.0002V40.0002H11.998V30.0002Z" fill="#D6F5EB"/>
</svg>
