<svg width="20" height="20" viewBox="0 0 20 20" fill="none" xmlns="http://www.w3.org/2000/svg">
<path fill-rule="evenodd" clip-rule="evenodd" d="M20 10C20 4.47716 15.5228 0 10 0C4.47716 0 0 4.47716 0 10V18C0 19.1046 0.895432 20 2 20H10H18C19.1046 20 20 19.1046 20 18V10Z" fill="#33CC99"/>
<path fill-rule="evenodd" clip-rule="evenodd" d="M16.002 10C16.002 6.68628 13.3157 4 10.002 4C6.68823 4 4.00195 6.68628 4.00195 10V20H16.002V10Z" fill="#5CD6AD"/>
<path fill-rule="evenodd" clip-rule="evenodd" d="M11.998 10.0002C11.998 8.89568 11.1026 8.00024 9.99805 8.00024C8.89349 8.00024 7.99805 8.89568 7.99805 10.0002V20.0002H11.998V10.0002Z" fill="#D6F5EB"/>
</svg>
